<svg width="32" height="32" viewBox="0 0 32 32" fill="none" xmlns="http://www.w3.org/2000/svg">
  <circle cx="16" cy="16" r="16" fill="#06C1D4"/>
  <g clip-path="url(#clip0)">
    <path d="M22.6536 13.2533C22.6224 12.5449 22.5078 12.0578 22.3437 11.6358C22.1744 11.1878 21.9139 10.7867 21.5727 10.4533C21.2392 10.1147 20.8355 9.8516 20.3927 9.68494C19.9682 9.52083 19.4837 9.40626 18.7753 9.37503C18.0615 9.34115 17.835 9.33331 16.0247 9.33331C14.2145 9.33331 13.9879 9.34115 13.2768 9.37238C12.5683 9.40362 12.0813 9.51829 11.6593 9.6823C11.2113 9.8516 10.8102 10.1121 10.4768 10.4533C10.1382 10.7867 9.87514 11.1905 9.70838 11.6333C9.54427 12.0578 9.4297 12.5423 9.39847 13.2507C9.36458 13.9644 9.35675 14.191 9.35675 16.0013C9.35675 17.8115 9.36458 18.0381 9.39582 18.7492C9.42706 19.4577 9.54172 19.9447 9.70584 20.3668C9.87514 20.8147 10.1382 21.2158 10.4768 21.5492C10.8102 21.8878 11.2139 22.151 11.6567 22.3176C12.0813 22.4817 12.5657 22.5963 13.2742 22.6275C13.9852 22.6589 14.2119 22.6666 16.0222 22.6666C17.8324 22.6666 18.059 22.6589 18.7701 22.6275C19.4785 22.5963 19.9656 22.4817 20.3875 22.3176C21.2836 21.9712 21.9921 21.2627 22.3385 20.3668C22.5025 19.9422 22.6172 19.4577 22.6484 18.7492C22.6796 18.0381 22.6875 17.8115 22.6875 16.0013C22.6875 14.191 22.6848 13.9644 22.6536 13.2533ZM21.4529 18.6971C21.4242 19.3483 21.3148 19.6999 21.2237 19.9343C20.9996 20.5152 20.5386 20.9762 19.9578 21.2003C19.7233 21.2914 19.3692 21.4008 18.7205 21.4294C18.0173 21.4607 17.8064 21.4685 16.0274 21.4685C14.2483 21.4685 14.0348 21.4607 13.3341 21.4294C12.6829 21.4008 12.3313 21.2914 12.0968 21.2003C11.8078 21.0934 11.5447 20.9241 11.3311 20.7027C11.1097 20.4865 10.9404 20.226 10.8336 19.937C10.7424 19.7026 10.633 19.3483 10.6044 18.6998C10.5731 17.9965 10.5654 17.7855 10.5654 16.0065C10.5654 14.2275 10.5731 14.0139 10.6044 13.3133C10.633 12.6621 10.7424 12.3105 10.8336 12.0761C10.9404 11.7869 11.1097 11.5239 11.3338 11.3102C11.5499 11.0888 11.8103 10.9195 12.0995 10.8128C12.3339 10.7216 12.6882 10.6122 13.3367 10.5836C14.04 10.5523 14.251 10.5445 16.0299 10.5445C17.8116 10.5445 18.0225 10.5523 18.7232 10.5836C19.3744 10.6122 19.726 10.7216 19.9604 10.8128C20.2495 10.9195 20.5126 11.0888 20.7261 11.3102C20.9475 11.5264 21.1168 11.7869 21.2237 12.0761C21.3148 12.3105 21.4242 12.6647 21.4529 13.3133C21.4841 14.0165 21.492 14.2275 21.492 16.0065C21.492 17.7855 21.4841 17.9939 21.4529 18.6971Z" fill="#0E0E0E"/>
    <path d="M16.0247 12.5761C14.1338 12.5761 12.5995 14.1102 12.5995 16.0013C12.5995 17.8923 14.1338 19.4264 16.0247 19.4264C17.9157 19.4264 19.4498 17.8923 19.4498 16.0013C19.4498 14.1102 17.9157 12.5761 16.0247 12.5761ZM16.0247 18.2231C14.798 18.2231 13.8029 17.2281 13.8029 16.0013C13.8029 14.7744 14.798 13.7795 16.0247 13.7795C17.2515 13.7795 18.2465 14.7744 18.2465 16.0013C18.2465 17.2281 17.2515 18.2231 16.0247 18.2231Z" fill="#0E0E0E"/>
    <path d="M20.385 12.4407C20.385 12.8822 20.0269 13.2403 19.5853 13.2403C19.1437 13.2403 18.7856 12.8822 18.7856 12.4407C18.7856 11.999 19.1437 11.6411 19.5853 11.6411C20.0269 11.6411 20.385 11.999 20.385 12.4407Z" fill="#0E0E0E"/>
  </g>
  <defs>
    <clipPath id="clip0">
      <rect x="9.33331" y="9.33331" width="13.3333" height="13.3333" fill="white"/>
    </clipPath>
  </defs>
</svg>
