<svg width="28" height="28" viewBox="0 0 28 28" fill="none" xmlns="http://www.w3.org/2000/svg">
  <path d="M13.9778 2.33337C11.715 2.33767 9.50235 2.9999 7.60925 4.2394C5.71616 5.4789 4.22436 7.24217 3.31558 9.31444C2.4068 11.3867 2.12026 13.6785 2.49085 15.9108C2.86144 18.143 3.87318 20.2193 5.40282 21.8867C6.49531 23.0709 7.82125 24.016 9.29708 24.6624C10.7729 25.3089 12.3666 25.6426 13.9778 25.6426C15.589 25.6426 17.1827 25.3089 18.6586 24.6624C20.1344 24.016 21.4603 23.0709 22.5528 21.8867C24.0825 20.2193 25.0942 18.143 25.4648 15.9108C25.8354 13.6785 25.5488 11.3867 24.6401 9.31444C23.7313 7.24217 22.2395 5.4789 20.3464 4.2394C18.4533 2.9999 16.2406 2.33767 13.9778 2.33337ZM13.9778 23.3334C11.561 23.3297 9.23989 22.3887 7.50282 20.7084C8.0302 19.4245 8.92736 18.3264 10.0803 17.5536C11.2332 16.7808 12.5898 16.3681 13.9778 16.3681C15.3658 16.3681 16.7224 16.7808 17.8754 17.5536C19.0283 18.3264 19.9254 19.4245 20.4528 20.7084C18.7157 22.3887 16.3946 23.3297 13.9778 23.3334ZM11.6445 11.6667C11.6445 11.2052 11.7813 10.7541 12.0377 10.3704C12.2941 9.98666 12.6585 9.68759 13.0849 9.51099C13.5113 9.33438 13.9804 9.28818 14.433 9.37821C14.8857 9.46824 15.3014 9.69047 15.6277 10.0168C15.9541 10.3431 16.1763 10.7589 16.2663 11.2115C16.3564 11.6641 16.3101 12.1333 16.1335 12.5596C15.9569 12.986 15.6579 13.3504 15.2741 13.6068C14.8904 13.8632 14.4393 14 13.9778 14C13.359 14 12.7655 13.7542 12.3279 13.3166C11.8903 12.879 11.6445 12.2855 11.6445 11.6667ZM22.0395 18.6667C20.9971 16.8838 19.3928 15.4969 17.4778 14.7234C18.0718 14.0498 18.4589 13.2191 18.5925 12.331C18.7262 11.443 18.6007 10.5352 18.2312 9.71662C17.8617 8.89807 17.2638 8.20353 16.5094 7.71633C15.7549 7.22914 14.8759 6.97 13.9778 6.97C13.0797 6.97 12.2007 7.22914 11.4463 7.71633C10.6918 8.20353 10.094 8.89807 9.72444 9.71662C9.35494 10.5352 9.22947 11.443 9.3631 12.331C9.49674 13.2191 9.88379 14.0498 10.4778 14.7234C8.56285 15.4969 6.95853 16.8838 5.91615 18.6667C5.08542 17.2517 4.64649 15.6409 4.64449 14C4.64449 11.5247 5.62782 9.15072 7.37816 7.40038C9.1285 5.65004 11.5025 4.66671 13.9778 4.66671C16.4532 4.66671 18.8271 5.65004 20.5775 7.40038C22.3278 9.15072 23.3112 11.5247 23.3112 14C23.3091 15.6409 22.8702 17.2517 22.0395 18.6667Z" fill="#0E0E0E"/>
</svg>
