<svg width="32" height="32" viewBox="0 0 32 32" fill="none" xmlns="http://www.w3.org/2000/svg">
  <path d="M25.878 7.41878C7.73319 9.65525 -0.699435 22.9518 7.73317 28.9217C10.286 30.7295 14.4703 31.0345 14.4703 31.0345C13.2707 30.7899 8.90721 30.0528 11.0889 26.2561C12.5413 23.7271 19.2208 20.4419 26.7545 18.8279C30.7501 17.9701 31.3643 14.5356 30.9037 11.6285C30.5838 9.61101 29.3104 6.99572 25.878 7.41878Z" fill="#0C0B73"/>
  <path d="M22.7044 2.24339C22.1105 0.606828 17.3942 -0.0864176 15.4784 0.00854758C8.51733 0.157326 -0.225465 4.99422 0.00444099 16.2792C0.119394 21.841 3.39555 25.5225 5.38806 27.2414C5.39126 27.2382 5.39764 27.2351 5.40084 27.2319C-0.726786 21.5182 4.48276 12.7579 10.5172 8.7931C18.4043 3.61117 23.2983 3.87679 22.7044 2.24339Z" fill="#0C0B73"/>
  <path d="M12.2189 29.9026C12.6943 30.835 17.0115 31.8016 21.2521 30.1015C26.6542 27.9352 28.1124 24.594 27.4295 23.531C26.2362 21.6724 10.1724 25.3448 12.2189 29.9026Z" fill="#0C0B73"/>
</svg>
