<svg width="74" height="75" viewBox="0 0 74 75" fill="none" xmlns="http://www.w3.org/2000/svg">
  <path d="M61.2806 18.1196C18.3126 23.4312 -1.65629 55.0106 18.3126 69.189C24.3578 73.4825 34.2665 74.2069 34.2665 74.2069C31.4257 73.6259 21.0928 71.8753 26.2592 62.8582C29.6985 56.8518 45.516 49.0495 63.3562 45.2163C72.818 43.1789 74.2724 35.022 73.1816 28.1177C72.424 23.3261 69.4086 17.1148 61.2806 18.1196Z" fill="white"/>
  <path d="M53.7653 5.82806C52.3589 1.94122 41.1905 0.294758 36.6536 0.5203C20.1695 0.87365 -0.533913 12.3613 0.0105165 39.1632C0.282731 52.3724 8.04085 61.116 12.7592 65.1983C12.7668 65.1908 12.7819 65.1832 12.7895 65.1757C-1.72107 51.6056 10.6154 30.7999 24.9054 21.3836C43.5824 9.07654 55.1718 9.70739 53.7653 5.82806Z" fill="white"/>
  <path d="M28.9352 71.5186C30.061 73.7331 40.2843 76.0288 50.3263 71.9911C63.1186 66.846 66.5718 58.9107 64.9548 56.3862C62.1288 51.9719 24.089 60.6939 28.9352 71.5186Z" fill="white"/>
</svg>
