<svg width="106" height="20" viewBox="0 0 106 20" fill="none" xmlns="http://www.w3.org/2000/svg">
  <path d="M72.0942 13.9918C72.0942 16.4328 72.0942 17.2944 72.0942 19.4483C70.7978 19.4483 69.5952 19.4483 68.2944 19.4483C68.2944 13.8496 68.2944 8.82245 68.2944 3.22235C68.2944 1.35565 69.6097 0.206911 71.3635 0.206911C73.2634 0.206911 74.7134 0.206906 76.4786 0.206911C78.4857 0.274817 80.3379 1.02532 81.7399 2.50439C82.8658 3.69492 83.4936 5.08905 83.4936 7.09934C83.4936 9.92345 82.0754 12.8216 78.5246 13.7046C77.702 13.9083 76.7709 13.9918 75.6017 13.9918C74.4326 13.9918 73.4593 13.9918 72.0942 13.9918ZM72.0164 10.5456C73.5228 10.5456 74.9094 10.5456 76.4786 10.5456C78.1246 10.5456 79.6938 8.67886 79.6938 7.09934C79.6938 5.08905 78.0862 4.00397 76.9507 4.00397C75.3094 4.00397 74.1403 4.00397 72.626 4.00397C72.2663 4.0061 72.0639 4.30106 72.0639 4.66818C72.0574 6.57378 72.0164 8.24808 72.0164 10.5456Z" fill="#06C1D5"/>
  <path d="M92.2623 6.81213C92.2623 8.12781 92.2623 9.05727 92.2623 10.2583C91.5316 10.2583 91.2393 10.2583 90.5085 10.2583C88.7548 10.2583 87.5856 11.6943 87.5856 13.1302C87.5856 13.9224 87.5899 14.1297 87.5856 14.8533C87.5749 16.3366 87.5856 17.9437 87.5856 19.4483C86.5626 19.4483 84.9083 19.4459 83.7858 19.4483C83.7858 18.5867 83.7858 13.6365 83.7858 12.5558C83.7858 9.97116 85.6857 6.81214 89.924 6.81214C90.3624 6.81213 90.947 6.81213 92.2623 6.81213Z" fill="#06C1D5"/>
  <path fill-rule="evenodd" clip-rule="evenodd" d="M99.4235 19.4483C103.056 19.4483 106 16.5553 106 12.9867C106 9.418 103.056 6.52502 99.4235 6.52502C95.7913 6.52502 92.8469 9.418 92.8469 12.9867C92.8469 16.5553 95.7913 19.4483 99.4235 19.4483ZM99.4234 16.0021C101.118 16.0021 102.493 14.652 102.493 12.9867C102.493 11.3213 101.118 9.97123 99.4234 9.97123C97.7284 9.97123 96.3544 11.3213 96.3544 12.9867C96.3544 14.652 97.7284 16.0021 99.4234 16.0021Z" fill="#06C1D5"/>
  <path d="M22.1123 19.4483C20.8331 19.4483 19.5443 19.4483 18.3125 19.4483C18.3125 13.0142 18.3125 6.64097 18.3125 0.206909C19.6278 0.206909 20.8805 0.206909 22.1123 0.206909C22.1123 1.09675 22.1123 7.51526 22.1123 7.96089C23.2815 6.09419 27.6658 6.09419 29.2734 7.8173C30.3036 8.92148 30.881 10.4566 30.881 12.5558C30.881 15.7149 30.881 16.5316 30.881 19.4483C29.4196 19.4483 28.5427 19.4483 27.0812 19.4483C27.0812 17.0653 27.1143 14.7024 27.0812 12.3196C27.0683 11.388 26.5001 10.3898 25.4736 10.1148C23.866 9.684 22.1106 10.402 22.1106 12.5997C22.0845 14.8935 22.1123 17.1544 22.1123 19.4483Z" fill="#0C0B73"/>
  <path d="M6.56833 3.65312C4.41907 3.65312 2.56958 3.65312 0.482784 3.65312C0.482784 2.41597 0.482784 1.42072 0.482784 0.206909C5.94852 0.206909 11.3531 0.206909 16.8511 0.206909C16.8511 1.37828 16.8511 2.41172 16.8511 3.65312C14.8074 3.65312 11.6834 3.65312 10.6604 3.65312C10.6604 7.24293 10.6604 14.5661 10.6604 19.4469C9.34028 19.4469 7.94319 19.4469 6.62091 19.4469C6.62091 14.2542 6.56833 8.90733 6.56833 3.65312Z" fill="#0C0B73"/>
  <path d="M51.0482 19.4483C49.789 19.4483 48.5001 19.4483 47.2494 19.4483C47.2494 17.2334 47.2609 14.8846 47.2494 12.6504C47.2494 11.12 46.3725 9.97124 44.6188 9.97124C42.865 9.97124 41.9881 11.12 41.9881 12.6504C41.967 14.9419 41.9881 17.1584 41.9881 19.4483C40.7628 19.4483 39.3905 19.4483 38.1884 19.4483C38.1884 16.9184 38.19 14.997 38.19 11.8379C38.19 9.39687 40.5267 6.52502 44.6188 6.52502C49.0031 6.52502 51.0208 9.39687 51.0208 11.7968C51.0208 14.1967 51.0482 16.9638 51.0482 19.4483Z" fill="#0C0B73"/>
  <path d="M52.8029 0.206909C54.094 0.206909 55.3272 0.206909 56.6027 0.206909C56.6027 6.62494 56.6027 13.0175 56.6027 19.4483C55.3428 19.4483 54.0962 19.4483 52.8029 19.4483C52.8029 13.0451 52.8029 6.65248 52.8029 0.206909Z" fill="#0C0B73"/>
  <path d="M65.956 6.81214C64.4946 8.67883 63.4439 10.0088 62.0239 11.6943C61.4191 12.4122 61.293 12.7826 62.0239 13.7046C63.6177 15.7149 64.6269 16.8636 66.5406 19.4483C65.2497 19.4483 63.2243 19.4483 61.7316 19.4483C60.4407 17.7032 58.6167 15.3471 57.6396 13.9917C57.36 13.6039 57.2032 13.2319 57.1885 12.843C57.1688 12.3247 57.4015 11.7762 57.9319 11.1199C58.6541 10.2262 60.1538 8.53524 61.7316 6.81213C63.1661 6.81213 64.4511 6.81214 65.956 6.81214Z" fill="#0C0B73"/>
  <rect x="32.6348" y="6.81213" width="3.79979" height="12.6361" fill="#0C0B73"/>
  <ellipse cx="34.5348" cy="2.36079" rx="2.19219" ry="2.15388" fill="#0C0B73"/>
</svg>
