<svg width="250" height="46" viewBox="0 0 250 46" fill="none" xmlns="http://www.w3.org/2000/svg">
  <path d="M169.709 32.9804C169.709 38.778 169.709 40.8242 169.709 45.9396C166.639 45.9396 163.791 45.9396 160.711 45.9396C160.711 32.6428 160.711 20.7033 160.711 7.40306C160.711 2.96965 163.826 0.241399 167.979 0.241399C172.478 0.241399 175.912 0.241387 180.092 0.241399C184.845 0.402675 189.231 2.18511 192.551 5.69791C195.217 8.52543 196.704 11.8365 196.704 16.6109C196.704 23.3182 193.345 30.2014 184.937 32.2984C182.989 32.7822 180.784 32.9804 178.015 32.9804C175.246 32.9804 172.942 32.9804 169.709 32.9804ZM169.525 24.7957C173.092 24.7957 176.376 24.7957 180.092 24.7957C183.989 24.7957 187.705 20.3623 187.705 16.6109C187.705 11.8365 183.899 9.25942 181.21 9.25942C177.323 9.25942 174.554 9.25942 170.968 9.25942C170.117 9.26446 169.637 9.965 169.637 10.8369C169.622 15.3627 169.525 19.3392 169.525 24.7957Z" fill="#06C1D5"/>
  <path d="M217.468 15.9288C217.468 19.0536 217.468 21.261 217.468 24.1136C215.738 24.1136 215.046 24.1136 213.315 24.1136C209.162 24.1136 206.394 27.5239 206.394 30.9342C206.394 32.8158 206.404 33.308 206.394 35.0266C206.368 38.5495 206.394 42.3663 206.394 45.9396C203.971 45.9396 200.054 45.934 197.396 45.9396C197.396 43.8934 197.396 32.1367 197.396 29.5701C197.396 23.4315 201.895 15.9288 211.931 15.9288C212.969 15.9288 214.354 15.9288 217.468 15.9288Z" fill="#06C1D5"/>
  <path fill-rule="evenodd" clip-rule="evenodd" d="M234.426 45.9397C243.027 45.9397 250 39.0689 250 30.5933C250 22.1177 243.027 15.2469 234.426 15.2469C225.825 15.2469 218.853 22.1177 218.853 30.5933C218.853 39.0689 225.825 45.9397 234.426 45.9397ZM234.426 37.7549C238.44 37.7549 241.694 34.5485 241.694 30.5932C241.694 26.638 238.44 23.4316 234.426 23.4316C230.413 23.4316 227.159 26.638 227.159 30.5932C227.159 34.5485 230.413 37.7549 234.426 37.7549Z" fill="#06C1D5"/>
  <path d="M51.3492 45.9396C48.32 45.9396 45.2682 45.9396 42.3511 45.9396C42.3511 30.6587 42.3511 15.5223 42.3511 0.241394C45.4658 0.241394 48.4322 0.241394 51.3492 0.241394C51.3492 2.35477 51.3492 17.5987 51.3492 18.6571C54.1179 14.2237 64.5003 14.2237 68.3072 18.3161C70.7467 20.9385 72.1141 24.5843 72.1141 29.5701C72.1141 37.0728 72.1141 39.0125 72.1141 45.9396C68.6533 45.9396 66.5768 45.9396 63.116 45.9396C63.116 40.28 63.1942 34.6682 63.116 29.009C63.0854 26.7965 61.7398 24.4258 59.3091 23.7726C55.5022 22.7495 51.3451 24.4546 51.3451 29.6743C51.2834 35.1221 51.3492 40.4916 51.3492 45.9396Z" fill="white"/>
  <path d="M14.54 8.42615C9.45049 8.42615 5.0708 8.42615 0.12914 8.42615C0.12914 5.4879 0.12914 3.1242 0.12914 0.241394C13.0723 0.241394 25.8706 0.241394 38.8902 0.241394C38.8902 3.02341 38.8902 5.47783 38.8902 8.42615C34.0506 8.42615 26.6529 8.42615 24.2303 8.42615C24.2303 16.9519 24.2303 34.3446 24.2303 45.9363C21.1042 45.9363 17.7958 45.9363 14.6646 45.9363C14.6646 33.6037 14.54 20.9049 14.54 8.42615Z" fill="white"/>
  <path d="M119.871 45.9398C116.889 45.9398 113.837 45.9398 110.875 45.9398C110.875 40.6792 110.902 35.1008 110.875 29.7945C110.875 26.1599 108.799 23.4316 104.646 23.4316C100.493 23.4316 98.4161 26.1599 98.4161 29.7945C98.366 35.2369 98.4161 40.5011 98.4161 45.9398C95.5144 45.9398 92.2648 45.9398 89.418 45.9398C89.418 39.9312 89.4219 35.3678 89.4219 27.8651C89.4219 22.0675 94.9553 15.2469 104.646 15.2469C115.028 15.2469 119.806 22.0675 119.806 27.7673C119.806 33.4671 119.871 40.0389 119.871 45.9398Z" fill="white"/>
  <path d="M124.026 0.241394C127.083 0.241394 130.004 0.241394 133.024 0.241394C133.024 15.4842 133.024 30.6666 133.024 45.9396C130.041 45.9396 127.089 45.9396 124.026 45.9396C124.026 30.732 124.026 15.5496 124.026 0.241394Z" fill="white"/>
  <path d="M155.174 15.9288C151.713 20.3622 149.225 23.521 145.862 27.5239C144.43 29.2291 144.131 30.1088 145.862 32.2984C149.636 37.0728 152.026 39.801 156.558 45.9396C153.501 45.9396 148.705 45.9396 145.17 45.9396C142.113 41.7952 137.794 36.1993 135.48 32.9804C134.818 32.0593 134.446 31.1759 134.411 30.2522C134.365 29.0211 134.916 27.7185 136.172 26.1598C137.882 24.0373 141.433 20.0212 145.17 15.9288C148.567 15.9288 151.61 15.9288 155.174 15.9288Z" fill="white"/>
  <rect x="76.2671" y="15.9288" width="8.99811" height="30.0108" fill="white"/>
  <ellipse cx="80.7663" cy="5.35687" rx="5.19122" ry="5.11547" fill="white"/>
</svg>
