<svg width="32" height="32" viewBox="0 0 32 32" fill="none" xmlns="http://www.w3.org/2000/svg">
  <circle cx="16" cy="16" r="16" fill="#06C1D4"/>
  <path d="M23.3576 12.2508C23.1847 11.6082 22.6781 11.1016 22.0356 10.9286C20.8618 10.6074 16.1665 10.6074 16.1665 10.6074C16.1665 10.6074 11.4714 10.6074 10.2976 10.9164C9.66742 11.0893 9.14841 11.6083 8.97556 12.2508C8.66666 13.4245 8.66666 15.8586 8.66666 15.8586C8.66666 15.8586 8.66666 18.305 8.97556 19.4664C9.14859 20.1089 9.65506 20.6155 10.2977 20.7885C11.4837 21.1098 16.1667 21.1098 16.1667 21.1098C16.1667 21.1098 20.8618 21.1098 22.0356 20.8008C22.6782 20.6279 23.1847 20.1213 23.3578 19.4788C23.6666 18.305 23.6666 15.871 23.6666 15.871C23.6666 15.871 23.6789 13.4245 23.3576 12.2508ZM14.6716 18.1073V13.6099L18.576 15.8586L14.6716 18.1073Z" fill="#0E0E0E"/>
</svg>
